<svg xmlns="http://www.w3.org/2000/svg" version="1.1" xmlns:xlink="http://www.w3.org/1999/xlink" xmlns:svgjs="http://svgjs.dev/svgjs" width="100" height="100"><svg version="1.1" id="SvgjsSvg1010" xmlns="http://www.w3.org/2000/svg" xmlns:xlink="http://www.w3.org/1999/xlink" x="0px" y="0px" viewBox="0 0 100 100" style="enable-background:new 0 0 100 100;" xml:space="preserve">
<style type="text/css">
	.st0{display:none;}
	.st1{display:inline;}
</style>
<g id="SvgjsG1009" class="st0">
	<g class="st1">
		<path d="M0,67.3v-7h19.4v6.6c0,9.2,4,12.6,10.9,12.6c7,0,10.3-4.2,10.3-11.6V3.1h21.1v65.2c0,7.7-1.9,13.8-5.8,18.5
			c-4.9,6.2-13.2,10-24.4,10C10.5,96.9,0,85.5,0,67.3z"></path>
	</g>
	<polygon class="st1" points="100,3.1 61.6,65.7 61.6,31.4 79.4,3.1 	"></polygon>
</g>
<path d="M99.8,2.4H84.1l-25.3,38v-38H45.5v64.2c0,6.3-1.6,11-4.6,14.2c-3.1,3.2-6.9,4.8-11.6,4.8c-4.4,0-8.1-1.4-11.1-4.2
	c-3-2.8-4.8-6.9-5.3-12.5L0,71.2c0.8,8.4,3.9,14.9,9.4,19.4c5.5,4.6,12.1,6.9,19.9,6.9c8.5,0,15.5-2.7,21.1-8
	c5.6-5.3,8.4-12.9,8.4-22.9v-3.8L99.8,2.4z"></path>
</svg><style>@media (prefers-color-scheme: light) { :root { filter: none; } }
@media (prefers-color-scheme: dark) { :root { filter: none; } }
</style></svg>